<svg width="18" height="16" viewBox="0 0 18 16" fill="none" xmlns="http://www.w3.org/2000/svg">
<path d="M12.1388 13.526L10.323 11.7091C9.62082 11.9602 8.86179 12.0067 8.13422 11.8432C7.40665 11.6797 6.74047 11.313 6.21317 10.7857C5.68588 10.2584 5.31916 9.59222 5.15568 8.86465C4.99221 8.13708 5.0387 7.37805 5.28975 6.67587L2.97225 4.35838C1.05525 6.06275 0 8 0 8C0 8 3.375 14.1875 9 14.1875C10.0805 14.1837 11.1487 13.9586 12.1388 13.526ZM5.86125 2.474C6.85131 2.04135 7.91954 1.81622 9 1.8125C14.625 1.8125 18 8 18 8C18 8 16.9436 9.93612 15.0289 11.6427L12.7091 9.323C12.9602 8.62082 13.0067 7.86179 12.8432 7.13422C12.6797 6.40665 12.313 5.74047 11.7857 5.21317C11.2584 4.68588 10.5922 4.31916 9.86465 4.15568C9.13708 3.99221 8.37805 4.0387 7.67587 4.28975L5.86125 2.47512V2.474Z" fill="#454545"/>
<path d="M6.21562 7.60175C6.15374 8.0341 6.1934 8.47492 6.33145 8.88928C6.46951 9.30364 6.70218 9.68015 7.01101 9.98898C7.31984 10.2978 7.69636 10.5305 8.11072 10.6685C8.52508 10.8066 8.9659 10.8463 9.39825 10.7844L6.2145 7.60175H6.21562ZM11.7844 8.39825L8.60175 5.2145C9.0341 5.15261 9.47492 5.19227 9.88928 5.33033C10.3036 5.46839 10.6802 5.70105 10.989 6.00988C11.2978 6.31872 11.5305 6.69523 11.6685 7.10959C11.8066 7.52395 11.8463 7.96477 11.7844 8.39712V8.39825ZM15.3517 15.1482L1.85175 1.64825L2.64825 0.851746L16.1482 14.3517L15.3517 15.1482Z" fill="#454545"/>
</svg>